<svg id="Layer_1" data-name="Layer 1" xmlns="http://www.w3.org/2000/svg" viewBox="0 0 882.45 882.45"><defs><style>.cls-1{fill:#265eac;}.cls-2{fill:#26a2dc;}.cls-3{fill:#007db6;}</style></defs><path class="cls-1" d="M581.79,123.71a394,394,0,0,0-292.3,1.16,382.43,382.43,0,0,0-122.93,80A364.06,364.06,0,0,0,85,323.67,353.47,353.47,0,0,0,86.27,601.8,362.17,362.17,0,0,0,168.5,719.18,379.93,379.93,0,0,0,290.78,798.1a392.75,392.75,0,0,0,144.61,27.95A396.86,396.86,0,0,0,580.5,799.26,381.75,381.75,0,0,0,704.2,721a365.55,365.55,0,0,0,83.39-118,350.56,350.56,0,0,0,1.23-280.58,367.08,367.08,0,0,0-82.68-119.38,384.72,384.72,0,0,0-124.35-79.36M789.56,322.16a358.52,358.52,0,0,1,1.22,282.14,369.22,369.22,0,0,1-82.69,120.46A387.86,387.86,0,0,1,583.38,806a399.64,399.64,0,0,1-296.48,1.16A389.63,389.63,0,0,1,160.77,726.6,372.64,372.64,0,0,1,76.91,605.52a355.67,355.67,0,0,1,1.23-284.59,370.59,370.59,0,0,1,84.57-119.7,387.23,387.23,0,0,1,125.48-79.39A402.75,402.75,0,0,1,582.09,123a384.76,384.76,0,0,1,124,80.06,367.69,367.69,0,0,1,83.42,119.09"/><path class="cls-1" d="M293.33,799.68C337.5,822.51,386.74,836.46,437,841a401.68,401.68,0,0,0,149.85-15.84A385.51,385.51,0,0,0,719,754.72a375.85,375.85,0,0,0,93.93-114,361.22,361.22,0,0,0,40.47-140.09c3.67-48.59-2.42-97.95-18.79-144a368,368,0,0,0-75.12-125.47A377.38,377.38,0,0,0,640,144.17c88.65,45.18,157,123.91,186.66,214.9,14.75,45.42,20.94,93.42,16.87,140.79a352.43,352.43,0,0,1-40.29,136.07,365.65,365.65,0,0,1-90.65,111.54c-37.44,31.11-81.44,54.67-128.34,70-94,30.74-200.59,24.22-290.9-17.83"/><path class="cls-1" d="M809,555.57a353.92,353.92,0,0,0,28.56-203.94c-5.32-34.52-16.46-68.14-31.77-99.8A381.35,381.35,0,0,0,779.35,206a399.31,399.31,0,0,0-33-41.82C698.49,111.24,634,72.54,563.84,53.12a403.89,403.89,0,0,0-216.46.12c-70.26,19.83-134.09,59.47-182.17,112.29S85,284.48,74.45,353.82a354.51,354.51,0,0,0,29.06,205A370.24,370.24,0,0,0,242.39,715.48c-59.15-39.67-106.27-95.26-134-158.77A348.46,348.46,0,0,1,82.77,355.07,361.33,361.33,0,0,1,172.7,171.83C219.76,120.59,282.13,82.3,350.47,63.3a393,393,0,0,1,210.63-1,384.49,384.49,0,0,1,179,107.21A390.84,390.84,0,0,1,773,210a374.27,374.27,0,0,1,26.57,44.64c15.5,30.9,26.88,63.84,32.72,97.78a358,358,0,0,1,3.28,102.94A379.33,379.33,0,0,1,809,555.57"/><path class="cls-1" d="M203.12,153.11a383,383,0,0,0-76,73.8A372.4,372.4,0,0,0,75.58,318.5c-12.69,32.7-19.83,67.3-22.34,102.13A369.24,369.24,0,0,0,53.33,473a381.62,381.62,0,0,0,7.85,51.9c15.34,68.54,52.35,132.3,104.06,181.82s118.16,85,189.65,100.17,147.33,10,216-14S701,725.91,745,670.05c44.4-55.58,71.73-123.41,77.57-193s-8.75-140.46-42.86-201.58c31.87,62.15,45.19,132.66,37.52,201.11-6.83,68.49-34.65,134.71-78.89,188.5A382.59,382.59,0,0,1,567.5,783.94a394.68,394.68,0,0,1-210.26,12.72c-69.53-14.47-134.46-48.51-185-96.69A363,363,0,0,1,69.35,523.14a375.25,375.25,0,0,1-8.42-50.72A364.52,364.52,0,0,1,60.11,421,349,349,0,0,1,80.6,320.22a367.88,367.88,0,0,1,48.87-91.69,398.61,398.61,0,0,1,73.65-75.42"/><path class="cls-2" d="M447.72,64.06A397.09,397.09,0,0,0,213.09,107.2c-71,37.89-129.17,98.07-162.89,169.42A356.56,356.56,0,0,0,23.84,506.47c16.57,76.85,59.4,148.32,120.55,200.61,61,52.49,139.73,85.28,221.13,92.66s165.16-10.16,235-50.82a407,407,0,0,0,49.64-34.17C666,702.36,680,688.09,693.71,673.66a376.67,376.67,0,0,0,64.09-99.09A364.55,364.55,0,0,0,786,461.45a360.75,360.75,0,0,0-9.84-115.56,372.68,372.68,0,0,1,6.95,115.31,361.21,361.21,0,0,1-30.28,111.35,373.31,373.31,0,0,1-64.35,96.73c-13.65,14-27.56,27.85-43.22,39.81a398.39,398.39,0,0,1-49,32.88c-68.93,38.63-150.45,55.87-229.78,48.25s-155.72-39.74-214.8-91C92,648.65,50,579.32,33.56,504.5,16.52,429.7,25.7,350,57.84,279.92s88.4-130,157.88-168.27l6.47-3.68,6.67-3.32,13.37-6.59c9.18-3.85,18.19-8.12,27.66-11.32a377.74,377.74,0,0,1,57.69-16.42,411.45,411.45,0,0,1,120.14-6.26"/><path class="cls-3" d="M581.79,123.71a394,394,0,0,0-292.3,1.16,382.43,382.43,0,0,0-122.93,80A364.06,364.06,0,0,0,85,323.67,353.47,353.47,0,0,0,86.27,601.8,362.17,362.17,0,0,0,168.5,719.18,379.93,379.93,0,0,0,290.78,798.1a392.75,392.75,0,0,0,144.61,27.95A396.86,396.86,0,0,0,580.5,799.26,381.75,381.75,0,0,0,704.2,721a365.55,365.55,0,0,0,83.39-118,350.56,350.56,0,0,0,1.23-280.58,367.08,367.08,0,0,0-82.68-119.38,384.72,384.72,0,0,0-124.35-79.36M789.56,322.16a358.52,358.52,0,0,1,1.22,282.14,369.22,369.22,0,0,1-82.69,120.46A387.86,387.86,0,0,1,583.38,806a399.64,399.64,0,0,1-296.48,1.16A389.63,389.63,0,0,1,160.77,726.6,372.64,372.64,0,0,1,76.91,605.52a355.67,355.67,0,0,1,1.23-284.59,370.59,370.59,0,0,1,84.57-119.7,387.23,387.23,0,0,1,125.48-79.39A402.75,402.75,0,0,1,582.09,123a384.76,384.76,0,0,1,124,80.06,367.69,367.69,0,0,1,83.42,119.09"/><path class="cls-1" d="M293.33,799.68C337.5,822.51,386.74,836.46,437,841a401.68,401.68,0,0,0,149.85-15.84A385.51,385.51,0,0,0,719,754.72a375.85,375.85,0,0,0,93.93-114,361.22,361.22,0,0,0,40.47-140.09c3.67-48.59-2.42-97.95-18.79-144a368,368,0,0,0-75.12-125.47A377.38,377.38,0,0,0,640,144.17c88.65,45.18,157,123.91,186.66,214.9,14.75,45.42,20.94,93.42,16.87,140.79a352.43,352.43,0,0,1-40.29,136.07,365.65,365.65,0,0,1-90.65,111.54c-37.44,31.11-81.44,54.67-128.34,70-94,30.74-200.59,24.22-290.9-17.83"/><path class="cls-1" d="M809,555.57a353.92,353.92,0,0,0,28.56-203.94c-5.32-34.52-16.46-68.14-31.77-99.8A381.35,381.35,0,0,0,779.35,206a399.31,399.31,0,0,0-33-41.82C698.49,111.24,634,72.54,563.84,53.12a403.89,403.89,0,0,0-216.46.12c-70.26,19.83-134.09,59.47-182.17,112.29S85,284.48,74.45,353.82a354.51,354.51,0,0,0,29.06,205A370.24,370.24,0,0,0,242.39,715.48c-59.15-39.67-106.27-95.26-134-158.77A348.46,348.46,0,0,1,82.77,355.07,361.33,361.33,0,0,1,172.7,171.83C219.76,120.59,282.13,82.3,350.47,63.3a393,393,0,0,1,210.63-1,384.49,384.49,0,0,1,179,107.21A390.84,390.84,0,0,1,773,210a374.27,374.27,0,0,1,26.57,44.64c15.5,30.9,26.88,63.84,32.72,97.78a358,358,0,0,1,3.28,102.94A379.33,379.33,0,0,1,809,555.57"/><path class="cls-1" d="M229.08,138.57a383.27,383.27,0,0,0-76,73.8A372.58,372.58,0,0,0,101.54,304c-12.69,32.7-19.83,67.31-22.34,102.13a369.24,369.24,0,0,0,.09,52.38,383.33,383.33,0,0,0,7.85,51.91c15.34,68.54,52.35,132.3,104.06,181.81,51.62,49.67,118.16,85,189.65,100.17s147.34,10,216-14,130.07-67,174.15-122.87c44.4-55.58,71.73-123.42,77.57-193S839.82,322.08,805.71,261c31.87,62.15,45.19,132.67,37.52,201.12-6.83,68.49-34.65,134.7-78.89,188.49A382.53,382.53,0,0,1,593.46,769.41,394.67,394.67,0,0,1,383.2,782.12c-69.53-14.47-134.46-48.51-185-96.69A363,363,0,0,1,95.31,508.61a375.25,375.25,0,0,1-8.42-50.72,364.54,364.54,0,0,1-.82-51.41,349.1,349.1,0,0,1,20.49-100.8A367.7,367.7,0,0,1,155.44,214a398.61,398.61,0,0,1,73.64-75.43"/><path class="cls-1" d="M176.73,671.89c34.6,34.87,76.89,62.8,123.19,82.08a400.25,400.25,0,0,0,147.57,29.6A394.76,394.76,0,0,0,595.94,756,390.21,390.21,0,0,0,722.1,675.6a371.76,371.76,0,0,0,83.78-121.11c19.2-45.09,29.38-93.83,28.72-142.51a358.74,358.74,0,0,0-30.84-141.66,363.28,363.28,0,0,0-85.52-118.24C787.9,221.44,827.45,316.65,826.18,412c-.67,47.57-10.31,95-29.5,138.86a362.83,362.83,0,0,1-82.3,117.34,379.36,379.36,0,0,1-122.24,79c-45.65,18.41-95.1,27.69-144.65,28.33-99.32,1.2-198.51-36.76-270.76-103.64"/><path class="cls-3" d="M718.77,715.72C782.9,668.57,830.58,601,852.9,526a356.67,356.67,0,0,0-9.62-230.37C815,222.1,761.18,157.9,692.61,115.18c-68.33-43.1-151.26-64.57-233-60C377.81,59.43,298,89.7,235,139.73S125.68,259,106.22,335.21a374.49,374.49,0,0,0-9.93,57.86c-2.05,19.49-1.44,39.08-.5,58.58a366.09,366.09,0,0,0,27.66,113.57c15.48,36.08,37.27,69.47,63.37,99.16a387,387,0,0,0,92.08,75A398.85,398.85,0,0,1,189,662.59c-25.28-30-46.1-63.43-60.61-99.29a362.49,362.49,0,0,1-25.75-112.08c-.67-19.17-1-38.4,1.24-57.48a367.26,367.26,0,0,1,10.45-56.54c20.29-74.1,65.24-141.63,126.94-190.09S380.7,69.52,460.2,65.63c79.49-4.73,160.22,15.82,227,57.54A370.5,370.5,0,0,1,835.45,298.45c29,71.39,33.25,151.93,12.31,226.16l-1.86,7-2.27,6.88L839,552.21c-3.66,8.95-6.89,18.09-11.23,26.78a347.18,347.18,0,0,1-28.68,50.77c-21.87,32.4-49.24,61.3-80.35,86"/></svg>