<svg id="Layer_1" data-name="Layer 1" xmlns="http://www.w3.org/2000/svg" viewBox="0 0 1600 1071"><defs><style>.cls-1{fill:#f55e21;}.cls-2{fill:#265eac;}.cls-3{fill:#1c2156;}.cls-4{fill:#fcb836;}</style></defs><path class="cls-1" d="M1599.79.22a13.79,13.79,0,0,0-6.91,2.08c-3.4,2-5.88,5.29-8.13,8.55-11.15,16.16-18,34.95-25.65,52.9s-14.74,36.51-23.11,54.33c-20.64,43.89-42.94,89.33-73,127.66-5.54,7.07-13.59,12.69-22.56,13.21-10.73.62-20.64-6.06-27.72-14.15s-12.19-17.72-19.08-26c-5.5-6.58-15.25-15.68-24.64-15.3-9,.37-16.14,9.09-20.69,15.94-11.4,17.13-19.27,35.18-27.59,53.78-6.27,14-14.88,27.57-27.65,36.12s-30.37,11.14-43.59,3.3c-18.56-11-21.76-36.34-34.64-53.65-3.63-4.89-8.79-9.45-14.87-9.31-7.6.18-12.89,7.34-17,13.72s-9.73,13.42-17.33,13.17c-7.14-.24-12.17-6.84-16-12.85-8.51-13.24-14.77-27.71-22.21-41.53-5.11-9.5-15.62-32.69-30-27.6-7.83,2.77-11.61,13.25-13.31,20.56-8,34.41-32.34,135.08-36,151.11-4.08,17.62-12.37,56.06-36,51.12-8.14-1.71-15.76-11.35-19.16-18.38-2.57-5.31-3.83-11.24-6.9-16.28s-8.87-9.21-14.59-7.75c-5.39,1.37-8.42,6.95-10.8,12-8.81,18.55-17.54,37.14-26.39,55.68-6.88,14.42-16.16,28.89-31.73,34.93-14.37,5.58-29.86,5.17-42.47-4.78-5.5-4.35-11.21-10.55-18.09-9.19-3.69.72-6.58,3.55-9,6.44-8.44,10.16-15.18,23.66-28,26.89-19.36,4.9-26.59-16.15-34-29.29-5.82-10.29-16.3-28.26-30.4-19.23-10,6.4-14.54,17.56-19.42,27.8q-8.49,17.82-17,35.65c-12.3,27.66-26.17,54.76-40.09,81.5-2.43,4.67-5,9.41-8.82,13s-9.34,5.83-14.43,4.5c-9.65-2.51-13-15.75-22.41-19-8.09-2.83-16.85,3.21-21.25,10.56s-6.12,16-10.23,23.56-12.18,14.16-20.55,12.29c-8-1.79-12.4-10.22-15.71-17.74Q540.76,598.21,531,576c-4.6-10.43-8.79-30.9-24.64-26-4.55,1.4-8,5.14-12.42,7-9.16,3.87-19.92-1.49-26.31-9.11s-9.9-17.21-15.16-25.65c-2.64-4.22-6-8.36-10.67-10.07-7.58-2.77-16.08,1.83-21.23,8s-8.15,13.93-12.79,20.53-12,12.38-20,11.5c-8.76-1-14.66-9.19-19.15-16.77C353.06,509,343.35,480,330.7,452.18c-1.91-4.21-5.14-9.14-9.71-8.41-3.83.6-5.74,4.86-7,8.53l-14.45,42.38a24.18,24.18,0,0,1-3.48,7.36c-1.7,2.13-4.36,3.71-7.07,3.36-4.13-.53-6.44-4.92-8.05-8.76q-3.65-8.64-7.27-17.27c-1.12-2.68-2.31-5.45-4.48-7.37-5.48-4.85-9.07.07-11.3,4.89-7,15.08-13.24,30.5-19.93,45.7C224.6,553,210.66,583.15,194.19,612c-7.72,13.51-16.16,26.94-27.95,37.09-13.1,11.28-29.5,16.68-46.67,14.27-17.7-2.48-32.65-15.65-45.33-27.25q-19.95-18.24-39-37.44C25.05,588.36,16.52,573.56.2,575.44l-.41.08V1071h1600Z"/><path class="cls-2" d="M1549.09,87.86V1071h6.3V72.58q-3.17,7.64-6.3,15.28"/><path class="cls-2" d="M1477.19,1071h6.3V216.87q-3.09,4.77-6.3,9.46Z"/><path class="cls-2" d="M1405.29,1071h6.29V243.47c-2.24-2.69-4.29-5.53-6.29-8.41Z"/><path class="cls-2" d="M1333.38,1071h6.3V233.71c-2.21,4-4.29,8-6.3,12Z"/><path class="cls-2" d="M1261.48,1071h6.29V317.36a38.82,38.82,0,0,1-6.29-.45Z"/><path class="cls-2" d="M1189.57,1071h6.3V250.52a18.27,18.27,0,0,0-6.3,4.29Z"/><path class="cls-2" d="M1117.67,1071H1124V215.76a97.86,97.86,0,0,0-6.29-10.39Z"/><path class="cls-2" d="M1045.77,375.75V1071h6.29V349.2c-1.92,8-3.36,14.07-4,17.09-.64,2.74-1.37,6-2.24,9.46"/><path class="cls-2" d="M973.86,1071h6.3V376.74a12.09,12.09,0,0,0-6.3-2Z"/><path class="cls-2" d="M902,477.78V1071h6.29V474.8a41.36,41.36,0,0,1-5.8,2.79l-.49.19"/><path class="cls-2" d="M832.91,470.06c-1,1.17-1.92,2.39-2.86,3.62V1071h6.3V466.49a29,29,0,0,0-3.44,3.57"/><path class="cls-2" d="M758.15,450.23V1071h6.29V457.29a40.48,40.48,0,0,0-6.29-7.06"/><path class="cls-2" d="M686.24,1071h6.3V536.81q-3.12,6.5-6.3,12.93Z"/><path class="cls-2" d="M614.34,591.11V1071h6.29V592.88a13.34,13.34,0,0,0-2.3-1.06,13,13,0,0,0-4-.71"/><path class="cls-2" d="M542.43,1071h6.3V616.27L542.43,602Z"/><path class="cls-2" d="M470.53,1071h6.29V555.34a31.11,31.11,0,0,1-6.29-4.47Z"/><path class="cls-2" d="M398.62,549.47V1071h6.3V544.2a29,29,0,0,1-6.3,5.27"/><path class="cls-2" d="M326.72,446v625H333V457.34q-1.14-2.59-2.31-5.16a21.39,21.39,0,0,0-4-6.18"/><path class="cls-2" d="M254.81,483.69V1071h6.3V471.84a18.7,18.7,0,0,0-3.21,5.05q-1.56,3.39-3.09,6.8"/><path class="cls-2" d="M182.91,1071h6.29V620.46c-2,3.29-4.09,6.54-6.29,9.68Z"/><path class="cls-2" d="M111,1071h6.29V663a47,47,0,0,1-6.29-1.68Z"/><path class="cls-2" d="M39.1,1071h6.3V608.75q-3.16-3.11-6.3-6.24Z"/><polygon class="cls-3" points="1549.78 308.84 1478.08 399.07 1404.29 459.74 1333.83 607.79 1263.43 575.43 1190.27 692.29 1118.58 780.86 1048.72 837.7 977.13 790.04 906.64 830.58 830.49 645.98 758.55 824.81 687.22 911.57 617.05 978.44 547.88 936.81 473.86 811.89 401.66 918.48 329.99 821.3 256.57 911.3 186.62 944.03 116.27 880.43 115.67 879.89 41.64 862.05 -0.21 890.23 -0.21 897.82 42.86 868.82 112.64 885.64 185.5 951.5 259.89 916.7 329.74 831.57 401.88 929.38 473.5 823.64 543.28 941.38 617.92 986.3 691.82 915.85 763.72 828.43 830.56 662.66 903.56 839.62 976.89 797.45 1049.1 845.5 1122.8 785.54 1195.39 695.94 1265.83 583.46 1336.84 616.1 1409.37 463.72 1482.34 403.72 1554.54 312.94 1599.79 264.53 1599.79 255.32 1549.78 308.84"/><polygon class="cls-4" points="1547.25 230.99 1546.95 231.43 1477.65 478.46 1405.88 632.31 1335.47 691.87 1265.46 787.29 1193.75 605.98 1118.82 691.78 1049.08 729.6 976.65 681.59 900.32 754.38 830.33 780.62 760.89 942.88 689.83 818.7 616.88 909.58 545.95 859.67 474.36 890.6 402.31 820.4 328.73 860.3 258.22 877.29 184.14 846.55 112.13 919.36 40.66 979.6 -0.21 994.16 -0.21 1000.84 43.31 985.33 116.39 923.98 185.64 853.99 257.7 883.9 330.61 866.32 401.24 828.14 472.99 898.05 545.21 866.85 618.09 918.12 688.95 829.85 761.7 956.98 835.06 785.58 903.13 760.05 977.36 689.62 1048.75 736.94 1122.32 697.04 1191.69 617.91 1263.8 800.21 1339.82 696.43 1410.47 636.67 1410.99 636.22 1483.53 480.63 1552.71 234.16 1599.79 166.75 1599.79 155.76 1547.25 230.99"/></svg>