<svg id="Layer_1" data-name="Layer 1" xmlns="http://www.w3.org/2000/svg" viewBox="0 0 1600.45 872.45"><defs><style>.cls-1{fill:#184e56;}.cls-2{fill:#2d6465;}.cls-3{fill:#437975;}.cls-4{fill:#598f84;}.cls-5{fill:#6fa494;}.cls-6{fill:#84baa3;}.cls-7{fill:#9acfb3;}</style></defs><rect class="cls-1" x="728.02" y="-0.15" width="871.99" height="233.35"/><path class="cls-2" d="M757.3,65.83C747,63.26,737.67,61.15,728,57.51V483h67.05L800,117.31c-.58-11.12-3.51-31.59-10.53-40.37s-21.64-8.77-32.17-11.11"/><path class="cls-2" d="M883.07-.15c10,17.25,13.67,46.78-7,56-11.12,4.68-21.65,7-33.35,9.95-10.53,2.34-25.15,2.34-32.17,11.11s-9.94,29.25-10.53,40.37L804,483h233.79l4.93-365.7c-.59-11.12-3.51-31.59-10.53-40.37S1010.5,68.17,1000,65.83c-11.7-2.93-22.23-5.27-33.35-9.95-20.69-9.25-17-38.78-7-56Z"/><path class="cls-2" d="M1125.74-.15c10,17.25,13.68,46.78-7,56-11.12,4.68-21.65,7-33.35,9.95-10.53,2.34-25.15,2.34-32.17,11.11s-10,29.25-10.53,40.37l4,365.7h233.79l4.93-365.7c-.59-11.12-3.51-31.59-10.53-40.37s-21.65-8.77-32.18-11.11c-11.7-2.93-22.23-5.27-33.34-9.95-20.69-9.25-17-38.78-7-56Z"/><path class="cls-2" d="M1368.42-.15c10,17.25,13.67,46.78-7,56-11.11,4.68-21.64,7-33.34,9.95-10.53,2.34-25.15,2.34-32.17,11.11s-10,29.25-10.53,40.37l4,365.7h233.79l4.93-365.7c-.59-11.12-3.51-31.59-10.53-40.37s-21.65-8.77-32.18-11.11c-11.7-2.93-22.23-5.27-33.34-9.95-20.69-9.25-17.06-38.78-7-56Z"/><path class="cls-2" d="M1600,57.51c-9.64,3.64-19,5.75-29.27,8.32-10.53,2.34-25.15,2.34-32.17,11.11s-10,29.25-10.53,40.37l4,365.7h68Z"/><path class="cls-3" d="M878.64,222.09c-11.7-2.93-22.23-5.27-33.35-10-22.23-9.94-16.38-43.28-4.68-59.66,9.95,8.19,15.8-38,5.27-31.59v-15.8c0-5.26,4.09-11.11,4.09-15.21s-2.92-5.26-3.51-8.19,1.17-5.26,0-7.6c-2.34-7-8.19-8.19-13.45-12.29-5.85-5.26-5.27-8.18-14-8.77-5.85-.59-12.29,2.92-17,2.34-.73-.06-10.18-1.25-16-.66-8.78.58-13.13,1.83-19,7.09-5.26,4.1-7,2.79-10.6,7.41-3,3.4-2.27,9.56-2.85,12.48s-1.77,4.5-1.77,8.6,2.35,9.54,2.35,14.8v15.8c-10.53-6.44-4.68,39.78,5.27,31.59,11.7,16.38,17.55,49.72-4.68,59.66-9,3.78-17.56,6-26.69,8.3V639.27H916.41l4.93-365.7c-.59-11.12-3.51-31.59-10.53-40.37s-21.64-8.77-32.17-11.11"/><path class="cls-3" d="M1153.49,233.2c-7-8.77-21.65-8.77-32.18-11.11-11.69-2.93-22.22-5.27-33.34-10-22.23-9.94-16.38-43.28-4.68-59.66,10,8.19,15.8-38,5.27-31.59v-15.8c0-5.26,4.09-11.11,4.09-15.21s-2.92-5.26-3.51-8.19,1.17-5.26,0-7.6c-2.34-7-8.19-8.19-13.45-12.29-5.85-5.26-5.27-8.19-14-8.77-5.85-.59-12.29,2.92-17,2.34-.74-.06-10.18-1.25-16-.66-8.78.58-13.13,1.83-19,7.09-5.26,4.1-7,2.79-10.6,7.41-3,3.4-2.27,9.56-2.85,12.48s-1.77,4.5-1.77,8.6,2.35,9.54,2.35,14.8v15.8c-10.53-6.44-4.68,39.78,5.27,31.59,11.7,16.38,17.55,49.72-4.68,59.66-11.12,4.68-21.65,7-33.35,10-10.53,2.34-25.15,2.34-32.17,11.11s-10,29.25-10.53,40.37l4,365.7h233.79l4.93-365.7c-.59-11.12-3.51-31.59-10.53-40.37"/><path class="cls-3" d="M1396.17,233.2c-7-8.77-21.65-8.77-32.18-11.11-11.7-2.93-22.23-5.27-33.34-10-22.23-9.94-16.38-43.28-4.68-59.66,9.94,8.19,15.79-38,5.26-31.59v-15.8c0-5.26,4.1-11.11,4.1-15.21s-2.93-5.26-3.51-8.19,1.17-5.26,0-7.6c-2.34-7-8.19-8.19-13.46-12.29-5.85-5.26-5.26-8.19-14-8.77-5.84-.59-12.28,2.92-17,2.34-.74-.06-10.18-1.25-16-.66-8.78.58-13.13,1.83-19,7.09-5.26,4.1-7,2.79-10.6,7.41-3,3.4-2.27,9.56-2.85,12.48s-1.78,4.5-1.78,8.6,2.36,9.54,2.36,14.8v15.8c-10.53-6.44-4.68,39.78,5.27,31.59,11.7,16.38,17.54,49.72-4.68,59.66-11.12,4.68-21.65,7-33.35,10-10.53,2.34-25.15,2.34-32.17,11.11s-10,29.25-10.53,40.37l4,365.7h233.79l4.93-365.7c-.59-11.12-3.51-31.59-10.53-40.37"/><path class="cls-3" d="M1600,220.44c-9.13-2.27-17.71-4.52-26.68-8.3-22.23-9.94-16.38-43.28-4.68-59.66,9.94,8.19,15.79-38,5.26-31.59v-15.8c0-5.26,4.1-11.11,4.1-15.21s-2.93-5.26-3.51-8.19,1.17-5.26,0-7.6c-2.34-7-8.19-8.19-13.46-12.29-5.85-5.26-5.26-8.19-14-8.77-5.85-.59-12.28,2.92-17,2.34-.74-.06-10.19-1.25-16-.66-8.77.58-13.12,1.83-19,7.09-5.27,4.1-7,2.79-10.6,7.41-3,3.4-2.27,9.56-2.86,12.48s-1.77,4.5-1.77,8.6,2.36,9.54,2.36,14.8v15.8c-10.53-6.44-4.68,39.78,5.26,31.59,11.7,16.38,17.55,49.72-4.68,59.66-11.11,4.68-21.64,7-33.34,10-10.53,2.34-25.15,2.34-32.17,11.11s-10,29.25-10.53,40.37l4,365.7H1600Z"/><path class="cls-4" d="M757.3,378.35C747,375.78,737.67,373.67,728,370v425.5h67.05L800,429.83c-.58-11.12-3.51-31.59-10.53-40.37s-21.64-8.77-32.17-11.11"/><path class="cls-4" d="M728,249.41a11.12,11.12,0,0,0,.61-3.27,6.87,6.87,0,0,0-.61-2.93Z"/><path class="cls-4" d="M728,277.24v23.62c2.56-8.54,3-20.6,0-23.62"/><path class="cls-4" d="M1032.15,389.46c-7-8.77-21.65-8.77-32.17-11.11-11.7-2.93-22.23-5.27-33.35-10-22.23-9.94-16.38-43.28-4.68-59.66,9.95,8.19,15.8-38,5.27-31.59v-15.8c0-5.26,4.09-11.11,4.09-15.21s-2.92-5.26-3.51-8.19,1.17-5.26,0-7.6c-2.34-7-8.19-8.19-13.45-12.28-5.85-5.27-5.27-8.19-14-8.78-5.85-.58-12.29,2.93-17,2.34-.73-.06-10.18-1.25-16-.66-8.78.58-13.13,1.83-19,7.1-5.26,4.09-7,2.78-10.6,7.4-3,3.4-2.27,9.56-2.85,12.48s-1.77,4.5-1.77,8.6,2.35,9.54,2.35,14.8v15.8c-10.53-6.44-4.68,39.78,5.27,31.59,11.7,16.38,17.55,49.72-4.68,59.66-11.12,4.68-21.65,7-33.35,10-10.53,2.34-25.15,2.34-32.17,11.11s-9.94,29.25-10.53,40.37l4,365.7h233.79l4.93-365.7c-.59-11.12-3.51-31.59-10.53-40.37"/><path class="cls-4" d="M1274.83,389.46c-7-8.77-21.65-8.77-32.18-11.11-11.7-2.93-22.23-5.27-33.34-10-22.23-9.94-16.38-43.28-4.68-59.66,9.94,8.19,15.79-38,5.27-31.59v-15.8c0-5.26,4.09-11.11,4.09-15.21s-2.93-5.26-3.51-8.19,1.17-5.26,0-7.6c-2.34-7-8.19-8.19-13.45-12.28-5.85-5.27-5.27-8.19-14-8.78-5.85-.58-12.29,2.93-17,2.34-.74-.06-10.18-1.25-16-.66-8.78.58-13.13,1.83-19,7.1-5.26,4.09-7,2.78-10.6,7.4-3,3.4-2.27,9.56-2.85,12.48s-1.78,4.5-1.78,8.6,2.36,9.54,2.36,14.8v15.8c-10.53-6.44-4.68,39.78,5.27,31.59,11.7,16.38,17.55,49.72-4.68,59.66-11.12,4.68-21.65,7-33.35,10-10.53,2.34-25.15,2.34-32.17,11.11s-10,29.25-10.53,40.37l4,365.7h233.79l4.93-365.7c-.59-11.12-3.51-31.59-10.53-40.37"/><path class="cls-4" d="M1517.51,389.46c-7-8.77-21.65-8.77-32.18-11.11-11.7-2.93-22.23-5.27-33.34-10-22.23-9.94-16.38-43.28-4.68-59.66,9.94,8.19,15.79-38,5.26-31.59v-15.8c0-5.26,4.1-11.11,4.1-15.21s-2.93-5.26-3.51-8.19,1.17-5.26,0-7.6c-2.34-7-8.19-8.19-13.46-12.28-5.85-5.27-5.26-8.19-14-8.78-5.85-.58-12.28,2.93-17,2.34-.74-.06-10.18-1.25-16-.66-8.78.58-13.13,1.83-19,7.1-5.27,4.09-7,2.78-10.6,7.4-3,3.4-2.27,9.56-2.86,12.48s-1.77,4.5-1.77,8.6,2.36,9.54,2.36,14.8v15.8c-10.53-6.44-4.68,39.78,5.26,31.59,11.7,16.38,17.55,49.72-4.67,59.66-11.12,4.68-21.65,7-33.35,10-10.53,2.34-25.15,2.34-32.17,11.11s-10,29.25-10.53,40.37l4,365.7h233.79l4.93-365.7c-.59-11.12-3.51-31.59-10.53-40.37"/><path class="cls-4" d="M1600,370c-9.64,3.64-19,5.75-29.27,8.32-10.53,2.34-25.15,2.34-32.17,11.11s-10,29.25-10.53,40.37l4,365.7h68Z"/><path class="cls-4" d="M1600,300.86V277.24c-3,3-2.55,15.08,0,23.62"/><path class="cls-5" d="M878.64,534.61c-11.7-2.92-22.23-5.26-33.35-9.94-22.23-9.95-16.38-43.29-4.68-59.67,9.95,8.19,15.8-38,5.27-31.59V417.62c0-5.27,4.09-11.12,4.09-15.21s-2.92-5.27-3.51-8.19,1.17-5.27,0-7.61c-2.34-7-8.19-8.19-13.45-12.28-5.85-5.27-5.27-8.19-14-8.78-5.85-.58-12.29,2.93-17,2.34-.73-.06-10.18-1.25-16-.66-8.78.58-13.13,1.83-19,7.1-5.26,4.09-7,2.78-10.6,7.41-3,3.39-2.27,9.55-2.85,12.48s-1.77,4.49-1.77,8.59,2.35,9.54,2.35,14.81v15.79c-10.53-6.44-4.68,39.78,5.27,31.59,11.7,16.38,17.55,49.72-4.68,59.67-9,3.77-17.56,6-26.69,8.29V871.84H917.49l3.85-285.75c-.59-11.12-3.51-31.59-10.53-40.36s-21.64-8.78-32.17-11.12"/><path class="cls-5" d="M1121.31,534.61c-11.69-2.92-22.22-5.26-33.34-9.94-22.23-9.95-16.38-43.29-4.68-59.67,10,8.19,15.8-38,5.27-31.59V417.62c0-5.27,4.09-11.12,4.09-15.21s-2.92-5.27-3.51-8.19,1.17-5.27,0-7.61c-2.34-7-8.19-8.19-13.45-12.28-5.85-5.27-5.27-8.19-14-8.78-5.85-.58-12.29,2.93-17,2.34-.74-.06-10.18-1.25-16-.66-8.78.58-13.13,1.83-19,7.1-5.26,4.09-7,2.78-10.6,7.41-3,3.39-2.27,9.55-2.85,12.48s-1.77,4.49-1.77,8.59,2.35,9.54,2.35,14.81v15.79c-10.53-6.44-4.68,39.78,5.27,31.59,11.7,16.38,17.55,49.72-4.68,59.67-11.12,4.68-21.65,7-33.35,9.94-10.53,2.34-25.15,2.34-32.17,11.12s-10,29.24-10.53,40.36l3.1,285.75h235.73L1164,586.09c-.59-11.12-3.51-31.59-10.53-40.36s-21.65-8.78-32.18-11.12"/><path class="cls-5" d="M1364,534.61c-11.7-2.92-22.23-5.26-33.34-9.94-22.23-9.95-16.38-43.29-4.68-59.67,9.94,8.19,15.79-38,5.26-31.59V417.62c0-5.27,4.1-11.12,4.1-15.21s-2.93-5.27-3.51-8.19,1.17-5.27,0-7.61c-2.34-7-8.19-8.19-13.46-12.28-5.85-5.27-5.26-8.19-14-8.78-5.85-.58-12.29,2.93-17,2.34-.74-.06-10.18-1.25-16-.66-8.78.58-13.13,1.83-19,7.1-5.26,4.09-7,2.78-10.6,7.41-3,3.39-2.27,9.55-2.85,12.48s-1.78,4.49-1.78,8.59,2.36,9.54,2.36,14.81v15.79c-10.53-6.44-4.68,39.78,5.27,31.59,11.69,16.38,17.54,49.72-4.68,59.67-11.12,4.68-21.65,7-33.35,9.94-10.53,2.34-25.15,2.34-32.17,11.12s-10,29.24-10.53,40.36l3.1,285.75h235.73l3.85-285.75c-.59-11.12-3.51-31.59-10.53-40.36S1374.52,537,1364,534.61"/><path class="cls-5" d="M1600,533c-9.13-2.27-17.71-4.52-26.68-8.29-22.23-9.95-16.38-43.29-4.68-59.67,9.94,8.19,15.79-38,5.26-31.59V417.62c0-5.27,4.1-11.12,4.1-15.21s-2.93-5.27-3.51-8.19,1.17-5.27,0-7.61c-2.34-7-8.19-8.19-13.46-12.28-5.85-5.27-5.26-8.19-14-8.78-5.85-.58-12.28,2.93-17,2.34-.74-.06-10.19-1.25-16-.66-8.77.58-13.12,1.83-19,7.1-5.27,4.09-7,2.78-10.6,7.41-3,3.39-2.27,9.55-2.86,12.48s-1.77,4.49-1.77,8.59,2.36,9.54,2.36,14.81v15.79c-10.53-6.44-4.68,39.78,5.26,31.59,11.7,16.38,17.55,49.72-4.68,59.67-11.11,4.68-21.64,7-33.34,9.94-10.53,2.34-25.15,2.34-32.17,11.12s-10,29.24-10.53,40.36l3.09,285.75H1600Z"/><path class="cls-6" d="M757.3,690.87c-10.27-2.56-19.63-4.68-29.28-8.32V871.84h70.24L800,742.35c-.58-11.11-3.51-31.59-10.53-40.36s-21.64-8.78-32.17-11.12"/><path class="cls-6" d="M728,589.76v23.62c2.56-8.54,3-20.6,0-23.62"/><path class="cls-6" d="M728,561.93a11.12,11.12,0,0,0,.61-3.26,6.88,6.88,0,0,0-.61-2.94Z"/><path class="cls-6" d="M1000,690.87c-11.7-2.92-22.23-5.26-33.35-9.94C944.4,671,950.25,637.64,962,621.26c9.95,8.19,15.8-38,5.27-31.59V573.88c0-5.27,4.09-11.12,4.09-15.21s-2.92-5.27-3.51-8.19,1.17-5.27,0-7.61c-2.34-7-8.19-8.19-13.45-12.28-5.85-5.27-5.27-8.19-14-8.78-5.85-.58-12.29,2.93-17,2.34-.73-.06-10.18-1.25-16-.66-8.78.58-13.13,1.83-19,7.1-5.26,4.09-7,2.79-10.6,7.41-3,3.39-2.27,9.55-2.85,12.48s-1.77,4.49-1.77,8.59,2.35,9.54,2.35,14.81v15.79c-10.53-6.43-4.68,39.78,5.27,31.59,11.7,16.38,17.55,49.72-4.68,59.67-11.12,4.68-21.65,7-33.35,9.94-10.53,2.34-25.15,2.34-32.17,11.12s-9.94,29.25-10.53,40.36l1.4,129.49h239.53l1.75-129.49c-.59-11.11-3.51-31.59-10.53-40.36s-21.65-8.78-32.17-11.12"/><path class="cls-6" d="M1242.65,690.87c-11.7-2.92-22.23-5.26-33.34-9.94-22.23-9.95-16.38-43.29-4.68-59.67,9.94,8.19,15.79-38,5.27-31.59V573.88c0-5.27,4.09-11.12,4.09-15.21s-2.93-5.27-3.51-8.19,1.17-5.27,0-7.61c-2.34-7-8.19-8.19-13.45-12.28-5.85-5.27-5.27-8.19-14-8.78-5.85-.58-12.29,2.93-17,2.34-.74-.06-10.18-1.25-16-.66-8.78.58-13.13,1.83-19,7.1-5.26,4.09-7,2.79-10.6,7.41-3,3.39-2.27,9.55-2.85,12.48s-1.78,4.49-1.78,8.59,2.36,9.54,2.36,14.81v15.79c-10.53-6.43-4.68,39.78,5.27,31.59,11.7,16.38,17.55,49.72-4.68,59.67-11.12,4.68-21.65,7-33.35,9.94-10.53,2.34-25.15,2.34-32.17,11.12s-10,29.25-10.53,40.36l1.4,129.49h239.53l1.75-129.49c-.59-11.11-3.51-31.59-10.53-40.36s-21.65-8.78-32.18-11.12"/><path class="cls-6" d="M1485.33,690.87c-11.7-2.92-22.23-5.26-33.34-9.94-22.23-9.95-16.38-43.29-4.68-59.67,9.94,8.19,15.79-38,5.26-31.59V573.88c0-5.27,4.1-11.12,4.1-15.21s-2.93-5.27-3.51-8.19,1.17-5.27,0-7.61c-2.34-7-8.19-8.19-13.46-12.28-5.85-5.27-5.26-8.19-14-8.78-5.85-.58-12.28,2.93-17,2.34-.74-.06-10.18-1.25-16-.66-8.78.58-13.13,1.83-19,7.1-5.27,4.09-7,2.79-10.6,7.41-3,3.39-2.27,9.55-2.86,12.48s-1.77,4.49-1.77,8.59,2.36,9.54,2.36,14.81v15.79c-10.53-6.43-4.68,39.78,5.26,31.59,11.7,16.38,17.55,49.72-4.68,59.67-11.11,4.68-21.64,7-33.34,9.94-10.53,2.34-25.15,2.34-32.17,11.12s-10,29.25-10.53,40.36l1.4,129.49h239.53L1528,742.35c-.59-11.11-3.51-31.59-10.53-40.36s-21.65-8.78-32.18-11.12"/><path class="cls-6" d="M1600,682.55c-9.64,3.64-19,5.76-29.27,8.32-10.53,2.34-25.15,2.34-32.17,11.12s-10,29.25-10.53,40.36l1.4,129.49H1600Z"/><path class="cls-6" d="M1600,613.38V589.76c-3,3-2.55,15.08,0,23.62"/><path class="cls-7" d="M910.81,858.25c-7-8.78-21.64-8.78-32.17-11.12-11.7-2.92-22.23-5.26-33.35-9.94-22.23-10-16.38-43.29-4.68-59.67,9.95,8.19,15.8-38,5.27-31.59V730.14c0-5.27,4.09-11.12,4.09-15.21s-2.92-5.27-3.51-8.19,1.17-5.27,0-7.61c-2.34-7-8.19-8.19-13.45-12.28-5.85-5.27-5.27-8.19-14-8.78-5.85-.58-12.29,2.93-17,2.34-.73-.06-10.18-1.24-16-.66-8.78.59-13.13,1.83-19,7.1-5.26,4.09-7,2.79-10.6,7.41-3,3.39-2.27,9.55-2.85,12.48s-1.77,4.5-1.77,8.59,2.35,9.54,2.35,14.81v15.79c-10.53-6.43-4.68,39.78,5.27,31.59,11.7,16.38,17.55,49.72-4.68,59.67-9,3.77-17.56,6-26.69,8.29v26.36H917c-1.57-5.43-3.61-10.32-6.23-13.59"/><path class="cls-7" d="M997.39,837.19c-11.12,4.68-21.65,7-33.35,9.94-10.53,2.34-25.15,2.34-32.17,11.12-2.62,3.27-4.66,8.16-6.23,13.59h234.08c-1.57-5.43-3.62-10.32-6.23-13.59-7-8.78-21.65-8.78-32.18-11.12-11.69-2.92-22.22-5.26-33.34-9.94-22.23-10-16.38-43.29-4.68-59.67,10,8.19,15.8-38,5.27-31.59V730.14c0-5.27,4.09-11.12,4.09-15.21s-2.92-5.27-3.51-8.19,1.17-5.27,0-7.61c-2.34-7-8.19-8.19-13.45-12.28-5.85-5.27-5.27-8.19-14-8.78-5.85-.58-12.29,2.93-17,2.34-.74-.06-10.18-1.24-16-.66-8.78.59-13.13,1.83-19,7.1-5.26,4.09-7,2.79-10.6,7.41-3,3.39-2.27,9.55-2.85,12.48s-1.77,4.5-1.77,8.59,2.35,9.54,2.35,14.81v15.79c-10.53-6.43-4.68,39.78,5.27,31.59,11.7,16.38,17.55,49.72-4.68,59.67"/><path class="cls-7" d="M1240.07,837.19c-11.12,4.68-21.65,7-33.35,9.94-10.53,2.34-25.15,2.34-32.17,11.12-2.62,3.27-4.66,8.16-6.23,13.59H1402.4c-1.57-5.43-3.62-10.32-6.23-13.59-7-8.78-21.65-8.78-32.18-11.12-11.7-2.92-22.23-5.26-33.34-9.94-22.23-10-16.38-43.29-4.68-59.67,9.94,8.19,15.79-38,5.26-31.59V730.14c0-5.27,4.1-11.12,4.1-15.21s-2.93-5.27-3.51-8.19,1.17-5.27,0-7.61c-2.34-7-8.19-8.19-13.46-12.28-5.84-5.27-5.26-8.19-14-8.78-5.85-.58-12.29,2.93-17,2.34-.74-.06-10.18-1.24-16-.66-8.78.59-13.13,1.83-19,7.1-5.26,4.09-7,2.79-10.6,7.41-3,3.39-2.27,9.55-2.85,12.48s-1.78,4.5-1.78,8.59,2.36,9.54,2.36,14.81v15.79c-10.53-6.43-4.68,39.78,5.27,31.59,11.7,16.38,17.54,49.72-4.68,59.67"/><path class="cls-7" d="M1600,871.84V845.48c-9.12-2.26-17.71-4.52-26.68-8.29-22.23-10-16.38-43.29-4.68-59.67,9.94,8.19,15.79-38,5.26-31.59V730.14c0-5.27,4.1-11.12,4.1-15.21s-2.93-5.27-3.51-8.19,1.17-5.27,0-7.61c-2.34-7-8.19-8.19-13.46-12.28-5.85-5.27-5.26-8.19-14-8.78-5.85-.58-12.28,2.93-17,2.34-.74-.06-10.19-1.24-16-.66-8.77.59-13.12,1.83-19,7.1-5.27,4.09-7,2.79-10.6,7.41-3,3.39-2.27,9.55-2.86,12.48s-1.77,4.5-1.77,8.59,2.36,9.54,2.36,14.81v15.79c-10.53-6.43-4.68,39.78,5.26,31.59,11.7,16.38,17.55,49.72-4.68,59.67-11.11,4.68-21.64,7-33.34,9.94-10.53,2.34-25.15,2.34-32.17,11.12-2.62,3.27-4.67,8.16-6.24,13.59Z"/><rect class="cls-1" x="0.01" y="-0.15" width="871.99" height="233.35"/><path class="cls-2" d="M29.29,65.83C19,63.26,9.66,61.15,0,57.51V483H67.06L72,117.31c-.58-11.12-3.51-31.59-10.53-40.37S39.82,68.17,29.29,65.83"/><path class="cls-2" d="M155.06-.15c10,17.25,13.67,46.78-7,56-11.12,4.68-21.64,7-33.34,9.95-10.53,2.34-25.16,2.34-32.18,11.11S72.58,106.19,72,117.31L76,483H309.74l4.93-365.7c-.58-11.12-3.51-31.59-10.53-40.37S282.5,68.17,272,65.83c-11.7-2.93-22.23-5.27-33.35-9.95-20.69-9.25-17.05-38.78-7-56Z"/><path class="cls-2" d="M397.74-.15c10,17.25,13.67,46.78-7,56-11.12,4.68-21.65,7-33.35,9.95-10.53,2.34-25.15,2.34-32.17,11.11s-9.94,29.25-10.53,40.37l4,365.7H552.42l4.93-365.7c-.59-11.12-3.51-31.59-10.53-40.37s-21.65-8.77-32.17-11.11c-11.7-2.93-22.23-5.27-33.35-9.95-20.69-9.25-17.05-38.78-7-56Z"/><path class="cls-2" d="M640.42-.15c10,17.25,13.67,46.78-7,56-11.12,4.68-21.65,7-33.35,9.95-10.53,2.34-25.15,2.34-32.17,11.11s-10,29.25-10.53,40.37l4,365.7H795.1L800,117.31c-.59-11.12-3.51-31.59-10.53-40.37s-21.65-8.77-32.18-11.11c-11.7-2.93-22.22-5.27-33.34-9.95-20.69-9.25-17.05-38.78-7-56Z"/><path class="cls-2" d="M872,57.51c-9.65,3.64-19,5.75-29.28,8.32-10.53,2.34-25.15,2.34-32.17,11.11s-9.95,29.25-10.53,40.37L804,483h68Z"/><path class="cls-3" d="M150.63,222.09c-11.7-2.93-22.23-5.27-33.35-10-22.23-9.94-16.38-43.28-4.68-59.66,10,8.19,15.8-38,5.27-31.59v-15.8c0-5.26,4.09-11.11,4.09-15.21s-2.92-5.26-3.51-8.19,1.17-5.26,0-7.6c-2.34-7-8.19-8.19-13.45-12.29-5.85-5.26-5.27-8.18-14-8.77-5.85-.59-12.28,2.92-17,2.34-.74-.06-10.19-1.25-16-.66-8.77.58-13.13,1.83-19,7.09-5.27,4.1-7,2.79-10.61,7.41-3,3.4-2.26,9.56-2.85,12.48s-1.77,4.5-1.77,8.6,2.36,9.54,2.36,14.8v15.8c-10.53-6.44-4.68,39.78,5.26,31.59,11.7,16.38,17.55,49.72-4.68,59.66-9,3.78-17.56,6-26.69,8.3V639.27H188.4l4.93-365.7c-.58-11.12-3.51-31.59-10.53-40.37s-21.64-8.77-32.17-11.11"/><path class="cls-3" d="M425.48,233.2c-7-8.77-21.64-8.77-32.17-11.11-11.7-2.93-22.23-5.27-33.35-10-22.23-9.94-16.38-43.28-4.68-59.66,10,8.19,15.8-38,5.27-31.59v-15.8c0-5.26,4.09-11.11,4.09-15.21s-2.92-5.26-3.51-8.19,1.17-5.26,0-7.6c-2.34-7-8.19-8.19-13.45-12.29-5.85-5.26-5.27-8.19-14-8.77-5.85-.59-12.29,2.92-17,2.34-.73-.06-10.18-1.25-16-.66-8.78.58-13.13,1.83-19,7.09-5.26,4.1-7,2.79-10.6,7.41-3,3.4-2.27,9.56-2.85,12.48s-1.77,4.5-1.77,8.6,2.35,9.54,2.35,14.8v15.8c-10.53-6.44-4.68,39.78,5.27,31.59,11.7,16.38,17.55,49.72-4.68,59.66-11.12,4.68-21.65,7-33.34,10-10.53,2.34-25.16,2.34-32.18,11.11s-9.94,29.25-10.53,40.37l4,365.7H431.08L436,273.57c-.59-11.12-3.51-31.59-10.53-40.37"/><path class="cls-3" d="M668.16,233.2c-7-8.77-21.65-8.77-32.18-11.11-11.69-2.93-22.22-5.27-33.34-10-22.23-9.94-16.38-43.28-4.68-59.66,9.95,8.19,15.8-38,5.27-31.59v-15.8c0-5.26,4.09-11.11,4.09-15.21s-2.92-5.26-3.51-8.19,1.17-5.26,0-7.6c-2.34-7-8.19-8.19-13.45-12.29-5.85-5.26-5.27-8.19-14-8.77-5.85-.59-12.29,2.92-17,2.34-.73-.06-10.18-1.25-16-.66-8.78.58-13.13,1.83-19,7.09-5.26,4.1-7,2.79-10.6,7.41-3,3.4-2.27,9.56-2.85,12.48s-1.77,4.5-1.77,8.6,2.35,9.54,2.35,14.8v15.8c-10.53-6.44-4.68,39.78,5.27,31.59,11.7,16.38,17.55,49.72-4.68,59.66-11.12,4.68-21.65,7-33.35,10-10.53,2.34-25.15,2.34-32.17,11.11S436.6,262.45,436,273.57l4,365.7H673.76l4.93-365.7c-.59-11.12-3.51-31.59-10.53-40.37"/><path class="cls-3" d="M872,220.44c-9.13-2.27-17.72-4.52-26.69-8.3-22.23-9.94-16.38-43.28-4.68-59.66,9.94,8.19,15.79-38,5.26-31.59v-15.8c0-5.26,4.1-11.11,4.1-15.21s-2.93-5.26-3.51-8.19,1.17-5.26,0-7.6c-2.34-7-8.19-8.19-13.45-12.29-5.85-5.26-5.27-8.19-14-8.77-5.85-.59-12.29,2.92-17,2.34-.74-.06-10.18-1.25-16-.66-8.78.58-13.13,1.83-19,7.09-5.26,4.1-7,2.79-10.6,7.41-3,3.4-2.27,9.56-2.85,12.48s-1.78,4.5-1.78,8.6,2.36,9.54,2.36,14.8v15.8c-10.53-6.44-4.68,39.78,5.27,31.59,11.7,16.38,17.55,49.72-4.68,59.66-11.12,4.68-21.65,7-33.35,10-10.53,2.34-25.15,2.34-32.17,11.11s-10,29.25-10.53,40.37l4,365.7H872Z"/><path class="cls-4" d="M29.29,378.35C19,375.78,9.66,373.67,0,370v425.5H67.06L72,429.83c-.58-11.12-3.51-31.59-10.53-40.37s-21.64-8.77-32.17-11.11"/><path class="cls-4" d="M0,249.41a11.12,11.12,0,0,0,.61-3.27A6.87,6.87,0,0,0,0,243.21Z"/><path class="cls-4" d="M0,277.24v23.62c2.56-8.54,3-20.6,0-23.62"/><path class="cls-4" d="M304.14,389.46c-7-8.77-21.64-8.77-32.17-11.11-11.7-2.93-22.23-5.27-33.35-10-22.23-9.94-16.38-43.28-4.68-59.66,9.95,8.19,15.8-38,5.27-31.59v-15.8c0-5.26,4.09-11.11,4.09-15.21s-2.92-5.26-3.51-8.19,1.17-5.26,0-7.6c-2.34-7-8.19-8.19-13.45-12.28-5.85-5.27-5.27-8.19-14-8.78-5.85-.58-12.29,2.93-17,2.34-.73-.06-10.18-1.25-16-.66-8.77.58-13.13,1.83-19,7.1-5.26,4.09-7,2.78-10.6,7.4-3,3.4-2.27,9.56-2.85,12.48s-1.77,4.5-1.77,8.6,2.35,9.54,2.35,14.8v15.8c-10.52-6.44-4.67,39.78,5.27,31.59,11.7,16.38,17.55,49.72-4.68,59.66-11.11,4.68-21.64,7-33.34,10-10.53,2.34-25.16,2.34-32.18,11.11S72.58,418.71,72,429.83l4,365.7H309.74l4.93-365.7c-.58-11.12-3.51-31.59-10.53-40.37"/><path class="cls-4" d="M546.82,389.46c-7-8.77-21.64-8.77-32.17-11.11-11.7-2.93-22.23-5.27-33.35-10-22.23-9.94-16.38-43.28-4.68-59.66,9.95,8.19,15.8-38,5.27-31.59v-15.8c0-5.26,4.09-11.11,4.09-15.21s-2.92-5.26-3.51-8.19,1.17-5.26,0-7.6c-2.34-7-8.19-8.19-13.45-12.28-5.85-5.27-5.27-8.19-14-8.78-5.85-.58-12.29,2.93-17,2.34-.73-.06-10.18-1.25-16-.66-8.78.58-13.13,1.83-19,7.1-5.26,4.09-7,2.78-10.6,7.4-3,3.4-2.27,9.56-2.85,12.48s-1.77,4.5-1.77,8.6,2.35,9.54,2.35,14.8v15.8c-10.53-6.44-4.68,39.78,5.27,31.59,11.7,16.38,17.55,49.72-4.68,59.66-11.12,4.68-21.65,7-33.35,10-10.53,2.34-25.15,2.34-32.17,11.11s-9.94,29.25-10.53,40.37l4,365.7H552.42l4.93-365.7c-.59-11.12-3.51-31.59-10.53-40.37"/><path class="cls-4" d="M789.5,389.46c-7-8.77-21.65-8.77-32.18-11.11-11.7-2.93-22.22-5.27-33.34-10-22.23-9.94-16.38-43.28-4.68-59.66,10,8.19,15.8-38,5.27-31.59v-15.8c0-5.26,4.09-11.11,4.09-15.21s-2.92-5.26-3.51-8.19,1.17-5.26,0-7.6c-2.34-7-8.19-8.19-13.45-12.28-5.85-5.27-5.27-8.19-14-8.78-5.85-.58-12.29,2.93-17,2.34-.74-.06-10.18-1.25-16-.66-8.78.58-13.13,1.83-19,7.1-5.26,4.09-7,2.78-10.6,7.4-3,3.4-2.27,9.56-2.85,12.48s-1.78,4.5-1.78,8.6,2.36,9.54,2.36,14.8v15.8c-10.53-6.44-4.68,39.78,5.27,31.59,11.7,16.38,17.55,49.72-4.68,59.66-11.12,4.68-21.65,7-33.35,10-10.53,2.34-25.15,2.34-32.17,11.11s-10,29.25-10.53,40.37l4,365.7H795.1L800,429.83c-.59-11.12-3.51-31.59-10.53-40.37"/><path class="cls-4" d="M872,370c-9.65,3.64-19,5.75-29.28,8.32-10.53,2.34-25.15,2.34-32.17,11.11s-9.95,29.25-10.53,40.37l4,365.7h68Z"/><path class="cls-4" d="M872,300.86V277.24c-3,3-2.56,15.08,0,23.62"/><path class="cls-5" d="M150.63,534.61c-11.7-2.92-22.23-5.26-33.35-9.94-22.22-9.95-16.38-43.29-4.68-59.67,10,8.19,15.8-38,5.27-31.59V417.62c0-5.27,4.09-11.12,4.09-15.21s-2.92-5.27-3.51-8.19,1.17-5.27,0-7.61c-2.34-7-8.19-8.19-13.45-12.28-5.85-5.27-5.27-8.19-14-8.78-5.85-.58-12.28,2.93-17,2.34-.74-.06-10.19-1.25-16-.66-8.77.58-13.12,1.83-19,7.1-5.27,4.09-7,2.78-10.61,7.41-3,3.39-2.26,9.55-2.85,12.48s-1.77,4.49-1.77,8.59,2.36,9.54,2.36,14.81v15.79C15.59,427,21.44,473.19,31.38,465c11.7,16.38,17.55,49.72-4.68,59.67-9,3.77-17.56,6-26.69,8.29V871.84H189.48l3.85-285.75c-.58-11.12-3.51-31.59-10.53-40.36s-21.64-8.78-32.17-11.12"/><path class="cls-5" d="M393.31,534.61c-11.7-2.92-22.23-5.26-33.35-9.94-22.23-9.95-16.38-43.29-4.68-59.67,10,8.19,15.8-38,5.27-31.59V417.62c0-5.27,4.09-11.12,4.09-15.21s-2.92-5.27-3.51-8.19,1.17-5.27,0-7.61c-2.34-7-8.19-8.19-13.45-12.28-5.85-5.27-5.27-8.19-14-8.78-5.85-.58-12.29,2.93-17,2.34-.73-.06-10.18-1.25-16-.66-8.78.58-13.13,1.83-19,7.1-5.26,4.09-7,2.78-10.6,7.41-3,3.39-2.27,9.55-2.85,12.48s-1.77,4.49-1.77,8.59,2.35,9.54,2.35,14.81v15.79c-10.53-6.44-4.68,39.78,5.27,31.59,11.7,16.38,17.55,49.72-4.68,59.67-11.12,4.68-21.65,7-33.34,9.94-10.53,2.34-25.16,2.34-32.18,11.12s-9.94,29.24-10.53,40.36l3.1,285.75H432.16L436,586.09c-.59-11.12-3.51-31.59-10.53-40.36s-21.64-8.78-32.17-11.12"/><path class="cls-5" d="M636,534.61c-11.69-2.92-22.22-5.26-33.34-9.94-22.23-9.95-16.38-43.29-4.68-59.67,9.95,8.19,15.8-38,5.27-31.59V417.62c0-5.27,4.09-11.12,4.09-15.21s-2.92-5.27-3.51-8.19,1.17-5.27,0-7.61c-2.34-7-8.19-8.19-13.45-12.28-5.85-5.27-5.27-8.19-14-8.78-5.85-.58-12.29,2.93-17,2.34-.73-.06-10.18-1.25-16-.66-8.78.58-13.13,1.83-19,7.1-5.26,4.09-7,2.78-10.6,7.41-3,3.39-2.27,9.55-2.85,12.48s-1.77,4.49-1.77,8.59,2.35,9.54,2.35,14.81v15.79c-10.53-6.44-4.68,39.78,5.27,31.59,11.7,16.38,17.55,49.72-4.68,59.67-11.12,4.68-21.65,7-33.35,9.94-10.53,2.34-25.15,2.34-32.17,11.12S436.6,575,436,586.09l3.1,285.75H674.84l3.85-285.75c-.59-11.12-3.51-31.59-10.53-40.36S646.51,537,636,534.61"/><path class="cls-5" d="M872,533c-9.13-2.27-17.72-4.52-26.69-8.29-22.23-9.95-16.38-43.29-4.68-59.67,9.94,8.19,15.79-38,5.26-31.59V417.62c0-5.27,4.1-11.12,4.1-15.21s-2.93-5.27-3.51-8.19,1.17-5.27,0-7.61c-2.34-7-8.19-8.19-13.45-12.28-5.85-5.27-5.27-8.19-14-8.78-5.85-.58-12.29,2.93-17,2.34-.74-.06-10.18-1.25-16-.66-8.78.58-13.13,1.83-19,7.1-5.26,4.09-7,2.78-10.6,7.41-3,3.39-2.27,9.55-2.85,12.48s-1.78,4.49-1.78,8.59,2.36,9.54,2.36,14.81v15.79c-10.53-6.44-4.68,39.78,5.27,31.59,11.7,16.38,17.55,49.72-4.68,59.67-11.12,4.68-21.65,7-33.35,9.94-10.53,2.34-25.15,2.34-32.17,11.12s-10,29.24-10.53,40.36l3.1,285.75H872Z"/><path class="cls-6" d="M29.29,690.87C19,688.31,9.66,686.19,0,682.55V871.84H70.25L72,742.35c-.58-11.11-3.51-31.59-10.53-40.36s-21.64-8.78-32.17-11.12"/><path class="cls-6" d="M0,589.76v23.62c2.56-8.54,3-20.6,0-23.62"/><path class="cls-6" d="M0,561.93a11.12,11.12,0,0,0,.61-3.26A6.88,6.88,0,0,0,0,555.73Z"/><path class="cls-6" d="M272,690.87c-11.7-2.92-22.23-5.26-33.35-9.94-22.23-9.95-16.38-43.29-4.68-59.67,9.95,8.19,15.8-38,5.27-31.59V573.88c0-5.27,4.09-11.12,4.09-15.21s-2.92-5.27-3.51-8.19,1.17-5.27,0-7.61c-2.34-7-8.19-8.19-13.45-12.28-5.85-5.27-5.27-8.19-14-8.78-5.85-.58-12.29,2.93-17,2.34-.74-.06-10.19-1.25-16-.66-8.77.58-13.13,1.83-19,7.1-5.26,4.09-7,2.79-10.6,7.41-3,3.39-2.27,9.55-2.85,12.48s-1.77,4.49-1.77,8.59,2.35,9.54,2.35,14.81v15.79c-10.52-6.43-4.67,39.78,5.27,31.59,11.7,16.38,17.55,49.72-4.68,59.67-11.11,4.68-21.64,7-33.34,9.94-10.53,2.34-25.16,2.34-32.18,11.12S72.58,731.24,72,742.35L73.4,871.84H312.93l1.74-129.49c-.58-11.11-3.51-31.59-10.53-40.36S282.5,693.21,272,690.87"/><path class="cls-6" d="M514.65,690.87c-11.7-2.92-22.23-5.26-33.35-9.94-22.23-9.95-16.38-43.29-4.68-59.67,9.95,8.19,15.8-38,5.27-31.59V573.88c0-5.27,4.09-11.12,4.09-15.21s-2.92-5.27-3.51-8.19,1.17-5.27,0-7.61c-2.34-7-8.19-8.19-13.45-12.28-5.85-5.27-5.27-8.19-14-8.78-5.85-.58-12.29,2.93-17,2.34-.73-.06-10.18-1.25-16-.66-8.78.58-13.13,1.83-19,7.1-5.26,4.09-7,2.79-10.6,7.41-3,3.39-2.27,9.55-2.85,12.48s-1.77,4.49-1.77,8.59,2.35,9.54,2.35,14.81v15.79c-10.53-6.43-4.68,39.78,5.27,31.59,11.7,16.38,17.55,49.72-4.68,59.67-11.12,4.68-21.65,7-33.35,9.94-10.52,2.34-25.15,2.34-32.17,11.12s-9.94,29.25-10.53,40.36l1.4,129.49H555.6l1.75-129.49c-.59-11.11-3.51-31.59-10.53-40.36s-21.64-8.78-32.17-11.12"/><path class="cls-6" d="M757.32,690.87c-11.7-2.92-22.22-5.26-33.34-9.94-22.23-9.95-16.38-43.29-4.68-59.67,9.94,8.19,15.8-38,5.27-31.59V573.88c0-5.27,4.09-11.12,4.09-15.21s-2.92-5.27-3.51-8.19,1.17-5.27,0-7.61c-2.34-7-8.19-8.19-13.45-12.28-5.85-5.27-5.27-8.19-14-8.78-5.85-.58-12.29,2.93-17,2.34-.74-.06-10.18-1.25-16-.66-8.78.58-13.13,1.83-19,7.1-5.26,4.09-7,2.79-10.6,7.41-3,3.39-2.27,9.55-2.85,12.48s-1.77,4.49-1.77,8.59,2.35,9.54,2.35,14.81v15.79c-10.53-6.43-4.68,39.78,5.27,31.59,11.7,16.38,17.55,49.72-4.68,59.67-11.12,4.68-21.65,7-33.35,9.94-10.53,2.34-25.15,2.34-32.17,11.12s-10,29.25-10.53,40.36l1.4,129.49H798.28L800,742.35c-.59-11.11-3.51-31.59-10.53-40.36s-21.65-8.78-32.18-11.12"/><path class="cls-6" d="M872,682.55c-9.65,3.64-19,5.76-29.28,8.32-10.53,2.34-25.15,2.34-32.17,11.12s-9.95,29.25-10.53,40.36l1.4,129.49H872Z"/><path class="cls-6" d="M872,613.38V589.76c-3,3-2.56,15.08,0,23.62"/><path class="cls-7" d="M182.8,858.25c-7-8.78-21.64-8.78-32.17-11.12-11.7-2.92-22.23-5.26-33.35-9.94-22.22-10-16.38-43.29-4.68-59.67,10,8.19,15.8-38,5.27-31.59V730.14c0-5.27,4.09-11.12,4.09-15.21s-2.92-5.27-3.51-8.19,1.17-5.27,0-7.61c-2.34-7-8.19-8.19-13.45-12.28-5.85-5.27-5.27-8.19-14-8.78-5.85-.58-12.28,2.93-17,2.34-.74-.06-10.19-1.24-16-.66-8.77.59-13.13,1.83-19,7.1-5.27,4.09-7,2.79-10.61,7.41-3,3.39-2.26,9.55-2.85,12.48s-1.77,4.5-1.77,8.59,2.36,9.54,2.36,14.81v15.79c-10.53-6.43-4.68,39.78,5.26,31.59,11.7,16.38,17.55,49.72-4.68,59.67-9,3.77-17.56,6-26.69,8.29v26.36H189c-1.57-5.43-3.61-10.32-6.23-13.59"/><path class="cls-7" d="M269.38,837.19c-11.12,4.68-21.65,7-33.34,9.94-10.53,2.34-25.16,2.34-32.18,11.12-2.61,3.27-4.66,8.16-6.23,13.59H431.71c-1.57-5.43-3.61-10.32-6.23-13.59-7-8.78-21.64-8.78-32.17-11.12-11.7-2.92-22.23-5.26-33.35-9.94-22.23-10-16.38-43.29-4.68-59.67,10,8.19,15.8-38,5.27-31.59V730.14c0-5.27,4.09-11.12,4.09-15.21s-2.92-5.27-3.51-8.19,1.17-5.27,0-7.61c-2.34-7-8.19-8.19-13.45-12.28-5.85-5.27-5.27-8.19-14-8.78-5.85-.58-12.29,2.93-17,2.34-.73-.06-10.18-1.24-16-.66-8.78.59-13.13,1.83-19,7.1-5.26,4.09-7,2.79-10.6,7.41-3,3.39-2.27,9.55-2.85,12.48s-1.77,4.5-1.77,8.59,2.35,9.54,2.35,14.81v15.79c-10.53-6.43-4.68,39.78,5.27,31.59,11.7,16.38,17.55,49.72-4.68,59.67"/><path class="cls-7" d="M512.06,837.19c-11.12,4.68-21.65,7-33.35,9.94-10.53,2.34-25.15,2.34-32.17,11.12-2.62,3.27-4.66,8.16-6.23,13.59H674.39c-1.57-5.43-3.61-10.32-6.23-13.59-7-8.78-21.65-8.78-32.17-11.12-11.7-2.92-22.23-5.26-33.35-9.94-22.23-10-16.38-43.29-4.68-59.67,9.95,8.19,15.8-38,5.27-31.59V730.14c0-5.27,4.09-11.12,4.09-15.21s-2.92-5.27-3.51-8.19,1.17-5.27,0-7.61c-2.34-7-8.19-8.19-13.45-12.28-5.85-5.27-5.27-8.19-14-8.78-5.85-.58-12.29,2.93-17,2.34-.73-.06-10.18-1.24-16-.66-8.78.59-13.13,1.83-19,7.1-5.26,4.09-7,2.79-10.6,7.41-3,3.39-2.27,9.55-2.85,12.48s-1.77,4.5-1.77,8.59,2.35,9.54,2.35,14.81v15.79c-10.53-6.43-4.68,39.78,5.27,31.59,11.7,16.38,17.55,49.72-4.68,59.67"/><path class="cls-7" d="M872,871.84V845.48c-9.13-2.26-17.72-4.52-26.69-8.29-22.23-10-16.38-43.29-4.68-59.67,9.94,8.19,15.79-38,5.26-31.59V730.14c0-5.27,4.1-11.12,4.1-15.21s-2.93-5.27-3.51-8.19,1.17-5.27,0-7.61c-2.34-7-8.19-8.19-13.45-12.28-5.85-5.27-5.27-8.19-14-8.78-5.85-.58-12.29,2.93-17,2.34-.74-.06-10.18-1.24-16-.66-8.78.59-13.13,1.83-19,7.1-5.26,4.09-7,2.79-10.6,7.41-3,3.39-2.27,9.55-2.85,12.48s-1.78,4.5-1.78,8.59,2.36,9.54,2.36,14.81v15.79c-10.53-6.43-4.68,39.78,5.27,31.59,11.7,16.38,17.55,49.72-4.68,59.67-11.12,4.68-21.65,7-33.35,9.94-10.53,2.34-25.15,2.34-32.17,11.12-2.62,3.27-4.66,8.16-6.23,13.59Z"/></svg>