<svg id="Layer_1" data-name="Layer 1" xmlns="http://www.w3.org/2000/svg" viewBox="0 0 153.05 76.98"><defs><style>.cls-1{fill:#362b78;}</style></defs><path class="cls-1" d="M149.68,18.28a1.21,1.21,0,0,0,.8-1.2c0-.82-.58-1.3-1.59-1.3h-1.5v4.14h.73V18.49l.85,0,.9,1.47h.83Zm-.88-.41-.69,0V16.43h.69c.64,0,.95.2.95.7s-.27.73-.95.74m.06-4.17a4.19,4.19,0,1,0,4.19,4.2,4.19,4.19,0,0,0-4.19-4.2m0,7.69a3.5,3.5,0,1,1,3.47-3.49,3.5,3.5,0,0,1-3.47,3.49M144.49,77c-.07-.26-.42-1.5-.5-1.73s-.19-.7-.55-2.08l-.28-1.07-.95-3.57c-.33-1.23-.55-2.12-1-3.76v0H139v0c-.07.21-.24.9-.38,1.45l-.19.78c-.13.48-.26.94-.39,1.43l-1.27,4.65-.11.41c-.27,1-.48,1.8-1,3.48v0h1.77v0c.16-.89.26-1.33.72-3.18l.14-.57h3.37c.27,1.07.43,1.82.61,2.68,0,.2.09.41.14.64,0,0,0,.11,0,.18s0,.19.05.26v0h2Zm-5.88-5.12.66-2.65c.25-1,.45-1.78.72-2.91.15.58.23.92.34,1.39s.19.81.36,1.49l.66,2.67c-.78,0-2.15,0-2.74,0m-19.76-.08L118.77,69c-.07-1.88-.09-2.39-.11-3.64v-.64h-2.43v0l-.1.49c0,.23-.09.45-.19.88l-.24.93c-.07.3-.15.6-.22.89l-1.62,6.47-1.62-6.92c-.16-.68-.42-1.83-.59-2.59l0-.16h-2.48V65c0,.59,0,1.2-.13,3.48l-.2,3.79c-.08,2-.09,2.35-.26,4.66v0h1.64v0c0-1.23.06-4.45.09-5.2l.18-5.26,1.49,6.68c.07.3.13.56.18.79.21.92.32,1.38.58,2.59l.07.43h1.83v0c0-.24.45-2.07.89-3.91l1.63-6.66.1,6.09c0,.93,0,3.75,0,4.47v0h1.86v0c-.08-1.44-.16-3.14-.24-5.2M89.17,73l-.83-1.69c1.36-.42,2.08-1.57,2.08-3.33a3,3,0,0,0-1.31-2.86,4,4,0,0,0-2-.41H84l.1,12.14V77H86v0s-.1-4-.1-5.24c.4,0,.51,0,.91,0l.26.57c.26.56.6,1.31.92,2,.2.43.39.85.54,1.2A13.08,13.08,0,0,1,89.09,77v0h2.15l0,0c-.56-1-.72-1.25-2.06-3.93m-3.31-2.64c0-1.42,0-2.86,0-4.28.28,0,.61,0,.92,0,.62,0,1.9,0,1.9,2a2.37,2.37,0,0,1-.6,1.8,2.93,2.93,0,0,1-2.22.51M65,75.22c-.09-.3-.17-.63-.46-1.73-.1-.37-.22-.84-.37-1.42l-.95-3.57c-.33-1.2-1.06-3.74-1.07-3.76v0h-2v0s-.59,1.92-.67,2.23c-.12.47-.24.91-.38,1.39,0,.11-.06.23-.1.34l-1.18,4.35c-.07.28-.14.53-.2.77-.22.85-.44,1.64-.87,3.12v0h1.78v0c.16-.88.25-1.31.7-3.19l.14-.57h3.38c.25,1,.41,1.74.59,2.57,0,.24.1.48.16.74,0,0,0,.12,0,.2s0,.18.05.25v0h2v0c-.06-.25-.42-1.51-.49-1.72m-5.39-3.39.67-2.65c.24-.92.42-1.7.72-2.91.14.57.22.91.33,1.37s.2.81.36,1.51l.67,2.67c-.78,0-2.15,0-2.75,0m-21.8-4c0-1.52,0-2.56,0-3.09v0H35.87v.37c.06,1.75.08,2.34.11,4.51-1,.05-3.16.05-4,0,0-.4,0-1.48,0-2.53V64.72H30.11v0c.11,2.91.11,5.9.11,8.8,0,1.12,0,2.36,0,3.41v0h1.9v-.35c0-1.12-.09-3.76-.09-5v-.5l.54,0c.7,0,1.09,0,1.89,0,.41,0,.84,0,1.25,0H36c0,.27,0,.92,0,1.54s0,1.22,0,1.43c0,1,0,2.14,0,2.91v0h1.92v0c-.1-3.08-.12-6.34-.12-9.11M142.12,25.08a17.51,17.51,0,0,0-9.76-7.14l-.13-.05-.13,0C123.73,20.24,120,26.3,120,36.85v7.43h4.16l0-5.75c2.36-1.76,7.51-4.46,16.08-4.11,0,.16.08,9.86.08,9.86h4.16V36.79c0-5.14-.63-8.82-2.37-11.71m-2.4,5.77a30.12,30.12,0,0,0-15.42,3.49c.42-6,3.12-10.59,7.94-12a12.2,12.2,0,0,1,7.48,8.52M116.56,0h-4.31l-.07,11.56c.2,14.38-5.89,25.32-11.42,28.22-5.52-2.9-11.61-13.84-11.41-28.22L89.27,0H85L85,10.84C84.56,27.08,92,42,100.76,44.21h0C109.49,42,117,27.08,116.49,10.84ZM66,44.28c8.07-.26,12.42-6.93,12.22-17.66V17.88H73.93V27c0,10.63-4.37,12.9-8.05,12.91h0c-3.68,0-8-2.28-8-12.91V17.88H53.47v8.74c-.2,10.73,4.15,17.4,12.22,17.66H66M34.33,41.21l.06,0c1.83-.69,11.34-5.51,11.41-18.94A21.34,21.34,0,0,0,41.17,8.33C36.14,2.09,28.07,0,22.84,0A23.66,23.66,0,0,0,6.66,6.26,21.51,21.51,0,0,0,0,22.38C.09,34.9,8.68,43.69,22.57,44.3a17.31,17.31,0,0,0,7.21-1s4.35,3,6.42,4.25c8.62,5.21,14.86,6.82,19.77,7.62a56.06,56.06,0,0,0,25.79-2c1-.34,2-.78,2.35-.92l.09-4.38c-1,.36-4.68,1.58-5.46,1.82a52.25,52.25,0,0,1-21.48,1.45c-12.29-1.8-21-8.77-22.91-9.91h0M30.67,38l-.07,0-.05,0c-3.22-2.88-5.17-4.84-6.6-6.15l-5.87,0a92.38,92.38,0,0,0,7.59,7.58l.38.35-.23.06c-.83.2-10.66.86-16.61-5.11C5.79,31.35,4.37,27.3,4.33,22.25,4.24,11.76,12.46,4.38,22.85,4.38,31.33,4.38,41.58,10,41.5,22c-.08,11.89-8.43,15.32-10.83,16M67.11,45h.17M8.85,65A4.87,4.87,0,0,0,7,64.73H4.33v0c0,.83,0,1.41.06,2.83s0,4.3,0,5.74c0,1.72,0,2.85,0,3.63v0H6.24v0c0-.93-.06-1.76-.08-4.66,1.36,0,2.76,0,3.73-1.28a4.31,4.31,0,0,0,.78-2.68c0-1.71-.63-2.87-1.82-3.37M7.57,70.79a5,5,0,0,1-1.41.11c0-2.08,0-2.73,0-4.81.22,0,.58,0,.86,0a1.9,1.9,0,0,1,1.31.39,2.35,2.35,0,0,1,.62,1.82c0,1.73-.73,2.32-1.35,2.52"/></svg>