<svg id="Layer_1" data-name="Layer 1" xmlns="http://www.w3.org/2000/svg" viewBox="0 0 327.87 55.03"><defs><style>.cls-1{fill:#17a1c9;}</style></defs><path class="cls-1" d="M35.43,22c1.47,0,2.94,0,4.4,0a4,4,0,0,0,1-.1,3.28,3.28,0,0,0,2.44-3.69A3.17,3.17,0,0,0,40,15.42c-3.06,0-6.13,0-9.19,0a3,3,0,0,0-.85.1,3.27,3.27,0,0,0-2.37,3.67A3.22,3.22,0,0,0,30.77,22c1.55,0,3.11,0,4.66,0ZM19.56,39.59c1.58,0,3.15,0,4.73,0A3.32,3.32,0,1,0,24,33c-3,0-6,0-9.07.07a3.29,3.29,0,0,0-1.43.39,3.25,3.25,0,0,0-1.57,3.76,3.3,3.3,0,0,0,3.21,2.42Zm4.1-15.47c-2.8,0-5.6,0-8.41,0a3.32,3.32,0,0,0-3.5,3.25,3.25,3.25,0,0,0,3.17,3.35c.31,0,.62,0,.92,0H39.37c.26,0,.53,0,.79,0a3.31,3.31,0,0,0,1.56-6.13,4,4,0,0,0-2.09-.5h-16m217.06-3.46h-1.41V38.17h3.1v-.84c0-3,0-6.08,0-9.12a4.71,4.71,0,0,1,4.94-4.91h1.1v-3a6.25,6.25,0,0,0-6.13,2.53l-.11-.08V20.66Zm61.6,17.53h3c0-.33,0-.61,0-.89,0-3.17,0-6.34.07-9.51a4.49,4.49,0,0,1,3.77-4.35,14.9,14.9,0,0,1,1.77-.13h.49v-3a6.3,6.3,0,0,0-6.14,2.51l-.13-.07V20.69h-2.88c-.18.85-.13,17,0,17.5m-43.7-3c-1.18,0-1.61-.49-1.61-1.67V24.21c0-.21,0-.43,0-.74h3.13V20.64H257V16.58h-3.39v4.08h-2.68v2.82h2.7v.95c0,2.94,0,5.87,0,8.8a9.8,9.8,0,0,0,.4,2.38,3,3,0,0,0,1.38,1.77c1.48.92,3.13.82,4.8.86V35.15c-.59,0-1.09,0-1.59,0M72,37.36V29.88c0-.52,0-1.05,0-1.57a3.67,3.67,0,0,1,3.88-3.7h1.25c.17,0,.34,0,.56,0v-4.3c-2.23,0-4.31.21-5.88,2l-.14-.06v-1.9H67.32V38.2H72c0-.33,0-.59,0-.84m206.83.11c0-3.61,0-7.22,0-10.83a12.14,12.14,0,0,0-.28-2.47,4.28,4.28,0,0,0-2.92-3.43c-3.19-1-6.15-.64-8.62,1.86a4.79,4.79,0,0,1-.41.36l-.16-.05V20.69h-2.89V38.18h3.08v-.83c0-2.63,0-5.25,0-7.88,0-.78.06-1.57.11-2.35a4.32,4.32,0,0,1,1.63-3A5.43,5.43,0,0,1,273.25,23a3,3,0,0,1,2.58,2.7,10.44,10.44,0,0,1,.14,1.76c0,3.31,0,6.61,0,9.91v.83h2.83c0-.29,0-.5,0-.72m48.32-12.64a5.27,5.27,0,0,0-3.71-4.13,10.49,10.49,0,0,0-6.53-.1,5.33,5.33,0,0,0-3.87,3.6,3.91,3.91,0,0,0,2.17,5,5.82,5.82,0,0,0,1.21.5c1.54.41,3.1.78,4.64,1.18.79.21,1.57.41,2.33.69A2,2,0,0,1,324.77,34a2.22,2.22,0,0,1-1.33,1.76,7.35,7.35,0,0,1-6.17.16,3,3,0,0,1-1.87-2.37c0-.25-.13-.49-.19-.71a7.66,7.66,0,0,0-2.8.1c0,.1,0,.21,0,.31a5.67,5.67,0,0,0,3.65,5,13.28,13.28,0,0,0,3,.6,10.61,10.61,0,0,0,5.17-.61,5.37,5.37,0,0,0,3.64-4.72,3.82,3.82,0,0,0-2.25-4.14,16.25,16.25,0,0,0-2.22-.78c-1.48-.39-3-.69-4.46-1.1a7.35,7.35,0,0,1-2.09-.9,1.88,1.88,0,0,1-.08-3.13,3.86,3.86,0,0,1,1.41-.65,7.89,7.89,0,0,1,3.71.09,3.06,3.06,0,0,1,2.37,2.22c.05.16.12.32.19.49h2.8a5.51,5.51,0,0,0-.07-.79m-95.35,4.48c-1.9.82-3.86.84-5.78,1.13a9,9,0,0,0-2.1.52,3.57,3.57,0,0,0-1.31.93,2.55,2.55,0,0,0,.32,3.59,3.54,3.54,0,0,0,1.9.82,7.67,7.67,0,0,0,5.47-1.4,3.41,3.41,0,0,0,1.48-2.53c.08-1,0-2,0-3.06m-9.15-3.41h-2.91a4.73,4.73,0,0,1,.7-2.91,4.49,4.49,0,0,1,2.17-1.82,11.53,11.53,0,0,1,5.71-.93,13,13,0,0,1,4,.83,3.61,3.61,0,0,1,2.42,3.68q0,4.07,0,8.14v2.23a1.22,1.22,0,0,0,.43,1.05.54.54,0,0,1,.21.37c0,.63,0,1.26,0,1.94a3.17,3.17,0,0,1-2.39-.29A2.52,2.52,0,0,1,232,36.05c-.16.11-.27.16-.36.24a9.75,9.75,0,0,1-8.48,2.34,6.46,6.46,0,0,1-2.29-.94A4.87,4.87,0,0,1,219,31.57a5,5,0,0,1,3-2.68,14.26,14.26,0,0,1,4-.83c1.3-.15,2.61-.28,3.91-.42s1.74-.51,2-1.34a2.65,2.65,0,0,0-.93-2.82,4.69,4.69,0,0,0-2.61-.77,13.7,13.7,0,0,0-2.93.17,3,3,0,0,0-2.57,2.48c0,.17-.11.33-.17.54M295.9,28c-.16-3.13-1.86-4.85-4.33-5.19a5.5,5.5,0,0,0-5.84,2.73,4.17,4.17,0,0,0-.58,2.46Zm-10.79,2.36a5.42,5.42,0,0,0,3.36,5.72,6.65,6.65,0,0,0,4.38-.13c1.29-.49,1.79-1,3-3.16H299a5.47,5.47,0,0,1-.2.84,7.39,7.39,0,0,1-4.17,4.4,10.35,10.35,0,0,1-7.64.23,7.86,7.86,0,0,1-5.28-6.62,10.79,10.79,0,0,1,.62-6,8.37,8.37,0,0,1,7.47-5.36,9.93,9.93,0,0,1,5.35,1,7,7,0,0,1,3.85,5,15.2,15.2,0,0,1,.27,4c-4.72,0-9.41,0-14.12,0m-83.56-.51c0,.13,0,.27,0,.4.06.54.07,1.09.18,1.62a5.14,5.14,0,0,0,4.75,4.38,5.7,5.7,0,0,0,6.62-4.43,9.63,9.63,0,0,0-.1-5.19,5.06,5.06,0,0,0-4.58-3.84,8.72,8.72,0,0,0-1.77,0,5,5,0,0,0-4.31,3,10.28,10.28,0,0,0-.79,4.09m-.25-7,.5-.39A10,10,0,0,1,208,20.2a7.89,7.89,0,0,1,8.11,6.67,13.72,13.72,0,0,1-.45,6.49,8,8,0,0,1-7.33,5.44A9.29,9.29,0,0,1,202,36.85c-.22-.17-.45-.32-.81-.58v10h-2.82V20.76h2.76v2.07l.18.05m-30.7-1.8c2.06,5.7,4.1,11.4,6.18,17.09a3.56,3.56,0,0,1,.11,2.3,2.33,2.33,0,0,1-2.52,2H173v3.82h2a5.33,5.33,0,0,0,5-3.08,28.18,28.18,0,0,0,1.51-3.42q3.44-9.47,6.81-18.95a3.36,3.36,0,0,0,.11-.5h-5c-1.25,4.35-2.49,8.65-3.74,13h-.18c-1.31-4.33-2.62-8.64-3.93-13h-5.26c.1.32.16.53.23.73M92,27.47a3.46,3.46,0,0,0-1.76-3.22,4.51,4.51,0,0,0-4.7,0,3.91,3.91,0,0,0-1.76,3.18Zm4.92,3.82H83.66a3.91,3.91,0,0,0,1.64,3,4.85,4.85,0,0,0,4.94.39,6.81,6.81,0,0,0,1.38-1.17c.17-.15.35-.4.54-.41,1.48,0,3,0,4.49,0a2.77,2.77,0,0,1-.56,1.74,7.71,7.71,0,0,1-4.44,3.5A10.79,10.79,0,0,1,82,36.93a6.48,6.48,0,0,1-2.56-3.4,12.61,12.61,0,0,1,0-8.25,7.7,7.7,0,0,1,5.6-5.07,11,11,0,0,1,6.29.15,7.65,7.65,0,0,1,5.35,6.18A30.21,30.21,0,0,1,97,30.92c0,.08,0,.16-.1.37m45.95-3.82a3.64,3.64,0,0,0-3.57-3.79c-2.66-.15-4.62,1.45-4.58,3.79Zm4.83,5.74a13.06,13.06,0,0,1-.71,1.61,7.73,7.73,0,0,1-4.82,3.6,10.9,10.9,0,0,1-8.9-1.24,7,7,0,0,1-3.15-4.36,13.3,13.3,0,0,1,.09-7,8.22,8.22,0,0,1,7.15-5.9,12.53,12.53,0,0,1,4.68.36,8,8,0,0,1,5.74,7c.15,1.29.13,2.61.19,4H134.62a3.65,3.65,0,0,0,1,2.47,5,5,0,0,0,6,.62,10,10,0,0,0,1-1c.14-.14.33-.33.51-.33,1.44,0,2.89,0,4.33,0,0,0,.08,0,.27.14m16-3.48c0-.31,0-.62,0-.92a4.47,4.47,0,0,0-3.94-4.4c-2.67-.31-4.34.82-5,3.25a7.48,7.48,0,0,0-.06,3.76,4.53,4.53,0,0,0,6.88,2.86,4.79,4.79,0,0,0,1.2-1.09,5.08,5.08,0,0,0,1-3.46m-.11-7V12.91h4.75V38.73h-4.49V36.31l-.62.48a8,8,0,0,1-7,1.84A7.45,7.45,0,0,1,150.58,34a10.69,10.69,0,0,1,.16-9.16,7.94,7.94,0,0,1,10.1-4,5.7,5.7,0,0,1,2.28,1.63,3.07,3.07,0,0,1,.28.42l.19-.1m-64,15.41h5.08v-.84c0-3,0-6,0-9a10.66,10.66,0,0,1,.19-1.69,2.15,2.15,0,0,1,1.74-1.84,7.75,7.75,0,0,1,2.4-.14,2.14,2.14,0,0,1,2,1.85,8.64,8.64,0,0,1,.16,1.69c0,3.06,0,6.12,0,9.19,0,.25,0,.5,0,.78h5.17V28.76c0-.37,0-.74,0-1.11a3.4,3.4,0,0,1,5-2.79,2.29,2.29,0,0,1,1.27,1.81,10.7,10.7,0,0,1,.11,1.5c0,3.06,0,6.13,0,9.19v.82h4.4c0-.3,0-.53,0-.77,0-1.25,0-2.49,0-3.74,0-2.62,0-5.25,0-7.87s-.71-4.49-4.44-5.51a17,17,0,0,0-2.59-.36,6.36,6.36,0,0,0-5.78,2.61,3.84,3.84,0,0,0-.3.43l-.36-.53A4.82,4.82,0,0,0,110.32,20a6,6,0,0,0-5.16,1.52c-.17.15-.35.29-.62.5,0-.64-.07-1.15-.1-1.69h-4.9c-.18,1.15-.13,17.34,0,17.82m-50-10.67A22.08,22.08,0,1,0,27.54,49.59,22.1,22.1,0,0,0,49.6,27.51M0,27.45A27.53,27.53,0,1,1,27.43,55,27.47,27.47,0,0,1,0,27.45"/></svg>