<svg id="Layer_1" data-name="Layer 1" xmlns="http://www.w3.org/2000/svg" xmlns:xlink="http://www.w3.org/1999/xlink" viewBox="0 0 329.03 55.03"><defs><style>.cls-1{fill:url(#linear-gradient);}.cls-2{fill:#052b40;}</style><linearGradient id="linear-gradient" x1="42.21" y1="11.89" x2="11.61" y2="42.49" gradientUnits="userSpaceOnUse"><stop offset="0" stop-color="#f29738"/><stop offset="1" stop-color="#e63b37"/></linearGradient></defs><path class="cls-1" d="M0,30.89,23.94,54.83a.73.73,0,0,0,.46.2h0a.67.67,0,0,0,.65-.81L20.47,33.64,0,29.07ZM54.09,29l-.15,0-20.59,4.6-4.6,20.58a.68.68,0,0,0,.65.81h0a.69.69,0,0,0,.45-.2L54.54,30.16A.67.67,0,0,0,54.09,29ZM23.5,0,0,23.5v1.82l20.47-4.57L25.06.16a1,1,0,0,0,0-.16Zm5.24,0a.92.92,0,0,0,0,.16l4.6,20.59,20.59,4.6a.66.66,0,0,0,.6-1.12L30.32,0Z"/><path class="cls-2" d="M228.9,18.89H239V39.56h4.58V18.89h10.08V14.32H228.9ZM219,29.26a6.93,6.93,0,0,0-.76-1.46A6.36,6.36,0,0,0,217,26.38a8.23,8.23,0,0,0-1.55-1,9,9,0,0,0-1.65-.57,8.13,8.13,0,0,0-1.57-.2H201.63a2.69,2.69,0,0,1-2-.77,2.87,2.87,0,0,1-.73-2.08,2.93,2.93,0,0,1,.73-2.09,2.64,2.64,0,0,1,2-.8h15.58V14.32H201.63a8.32,8.32,0,0,0-2.39.39A7.18,7.18,0,0,0,196.86,16,6.91,6.91,0,0,0,195,18.3a7.52,7.52,0,0,0-.73,3.48,7.52,7.52,0,0,0,.73,3.48,6.75,6.75,0,0,0,1.83,2.31,7.15,7.15,0,0,0,2.38,1.28,8.32,8.32,0,0,0,2.39.39h10.53l.34,0a3,3,0,0,1,.81.19,2.38,2.38,0,0,1,.88.6,2.68,2.68,0,0,1,.56.92,3.57,3.57,0,0,1,.19,1.16,3,3,0,0,1-.73,2.08,2.71,2.71,0,0,1-2.05.77H194.51v4.58h17.65a8.14,8.14,0,0,0,1.57-.18,8.05,8.05,0,0,0,3.22-1.5,5.89,5.89,0,0,0,1.31-1.41,7.12,7.12,0,0,0,.91-1.9,8.09,8.09,0,0,0,.34-2.44,8.26,8.26,0,0,0-.33-2.43l-.15-.44m64.79-10.37h-8.05l-.88.06a10.28,10.28,0,0,0-1.57.31,10.43,10.43,0,0,0-1.88.76,6.63,6.63,0,0,0-1.81,1.41,7.24,7.24,0,0,0-1.36,2.24,8.81,8.81,0,0,0-.54,3.27v1.84h16.09Zm4.4-3.16a2.43,2.43,0,0,1,.17.89V39.55h-4.57V33.36H267.73v6.19h-4.57V26.94a13.18,13.18,0,0,1,.95-5.09,11.74,11.74,0,0,1,6.63-6.6,13.32,13.32,0,0,1,5-.93h10.32a2.43,2.43,0,0,1,.89.17,2.11,2.11,0,0,1,.74.5,2.25,2.25,0,0,1,.5.74m31.25,11a4.94,4.94,0,0,0,1.58-.36,3.91,3.91,0,0,0,1.23-.78,3.42,3.42,0,0,0,.8-1.19,4.14,4.14,0,0,0,.28-1.59V19.91a1.36,1.36,0,0,0-.1-.59A.64.64,0,0,0,323,19a.66.66,0,0,0-.32-.12l-.31,0h-15.1v7.83ZM329,39.55H322l-9.54-8.25h-5.12v8.25h-4.57V16.62a2.43,2.43,0,0,1,.17-.89,2.22,2.22,0,0,1,.49-.74,2.07,2.07,0,0,1,.73-.5,2.46,2.46,0,0,1,.91-.17h17.37a5.51,5.51,0,0,1,2.59.55,5.29,5.29,0,0,1,1.72,1.39,5.72,5.72,0,0,1,.95,1.81,6.42,6.42,0,0,1,.29,1.81V22.8a9.29,9.29,0,0,1-.39,2.8,8,8,0,0,1-1.05,2.17A7.3,7.3,0,0,1,325,29.38a9.45,9.45,0,0,1-1.8,1.1,8.72,8.72,0,0,1-1.91.63,9,9,0,0,1-1.8.19ZM141.88,18.89h-8L133,19a10.42,10.42,0,0,0-1.56.31,10.15,10.15,0,0,0-1.88.76,6.63,6.63,0,0,0-1.81,1.41,7.06,7.06,0,0,0-1.36,2.24,8.81,8.81,0,0,0-.54,3.27v1.84h16.08Zm4.4-3.16a2.25,2.25,0,0,1,.18.89V39.55h-4.58V33.36H125.8v6.19h-4.58V26.94a13.37,13.37,0,0,1,1-5.09,11.72,11.72,0,0,1,6.64-6.6,13.32,13.32,0,0,1,5-.93h10.31a2.44,2.44,0,0,1,.9.17,2.2,2.2,0,0,1,.74.5,2.08,2.08,0,0,1,.49.74m32.76,7a4.16,4.16,0,0,1-.37,1.91,3.19,3.19,0,0,1-.93,1.13,3.55,3.55,0,0,1-1.25.57c-.46.11-.9.2-1.34.28H166.9a4.68,4.68,0,0,1-1.63-.28A3.36,3.36,0,0,1,164,25.6a3.47,3.47,0,0,1-.79-1.22,4.35,4.35,0,0,1-.28-1.61V14.32h-4.58v8.45a9,9,0,0,0,.4,2.79,8,8,0,0,0,1.05,2.18,7.53,7.53,0,0,0,1.52,1.61,9.73,9.73,0,0,0,1.81,1.1,9.32,9.32,0,0,0,3.7.82h1.83v8.29h4.61V31.27h1.85a9.19,9.19,0,0,0,1.81-.2,9.08,9.08,0,0,0,1.89-.62,10,10,0,0,0,1.8-1.1,7.07,7.07,0,0,0,1.52-1.61,7.88,7.88,0,0,0,1.05-2.18,9.21,9.21,0,0,0,.4-2.79V14.32H179ZM108.5,14.32h5.23L102.87,38a2.4,2.4,0,0,1-.64,1.08,2.26,2.26,0,0,1-1.19.65,2.37,2.37,0,0,1-1.37-.16,2.21,2.21,0,0,1-1-.88L90.28,21,81.89,38.66a2.08,2.08,0,0,1-.82.79,2.3,2.3,0,0,1-1.12.28,1.89,1.89,0,0,1-1.35-.51A2.35,2.35,0,0,1,77.72,38l-11-23.65H72L80.25,31.9l7.92-16.51A2.08,2.08,0,0,1,89,14.6a3,3,0,0,1,1.29-.28,3.1,3.1,0,0,1,1.32.28,2.38,2.38,0,0,1,.85.79l8,16.57Z"/></svg>